<mxfile host="app.diagrams.net" modified="2020-09-21T13:15:46.500Z" agent="5.0 (Macintosh; Intel Mac OS X 10_15_6) AppleWebKit/605.1.15 (KHTML, like Gecko) Version/13.1.2 Safari/605.1.15" etag="YSypyYdzzp2FKKqwZjuk" version="13.7.3" type="github">
  <diagram id="Err-bk3tQzCCGesKZT8b" name="Page-1">
    <mxGraphModel dx="679" dy="390" grid="1" gridSize="10" guides="1" tooltips="1" connect="1" arrows="1" fold="1" page="1" pageScale="1" pageWidth="1654" pageHeight="1169" math="0" shadow="0">
      <root>
        <mxCell id="0" />
        <mxCell id="1" parent="0" />
        <mxCell id="0jix5BdM98onpOWOXJaW-1" value="MOVIE" style="whiteSpace=wrap;html=1;align=center;" vertex="1" parent="1">
          <mxGeometry x="560" y="600" width="100" height="40" as="geometry" />
        </mxCell>
        <mxCell id="0jix5BdM98onpOWOXJaW-2" value="VERSION" style="whiteSpace=wrap;html=1;align=center;" vertex="1" parent="1">
          <mxGeometry x="240" y="400" width="100" height="40" as="geometry" />
        </mxCell>
        <mxCell id="0jix5BdM98onpOWOXJaW-3" value="RATING" style="whiteSpace=wrap;html=1;align=center;" vertex="1" parent="1">
          <mxGeometry x="880" y="400" width="100" height="40" as="geometry" />
        </mxCell>
        <mxCell id="0jix5BdM98onpOWOXJaW-4" value="ACTOR" style="whiteSpace=wrap;html=1;align=center;" vertex="1" parent="1">
          <mxGeometry x="240" y="800" width="100" height="40" as="geometry" />
        </mxCell>
        <mxCell id="0jix5BdM98onpOWOXJaW-5" value="GENRE" style="whiteSpace=wrap;html=1;align=center;" vertex="1" parent="1">
          <mxGeometry x="880" y="800" width="100" height="40" as="geometry" />
        </mxCell>
        <mxCell id="0jix5BdM98onpOWOXJaW-6" value="ACCOUNT" style="whiteSpace=wrap;html=1;align=center;" vertex="1" parent="1">
          <mxGeometry x="880" y="600" width="100" height="40" as="geometry" />
        </mxCell>
        <mxCell id="0jix5BdM98onpOWOXJaW-7" value="EPISODE" style="whiteSpace=wrap;html=1;align=center;" vertex="1" parent="1">
          <mxGeometry x="560" y="400" width="100" height="40" as="geometry" />
        </mxCell>
        <mxCell id="0jix5BdM98onpOWOXJaW-8" value="PROVIDE" style="shape=rhombus;perimeter=rhombusPerimeter;whiteSpace=wrap;html=1;align=center;" vertex="1" parent="1">
          <mxGeometry x="400" y="490" width="120" height="60" as="geometry" />
        </mxCell>
        <mxCell id="0jix5BdM98onpOWOXJaW-9" value="APPEAR IN" style="shape=rhombus;perimeter=rhombusPerimeter;whiteSpace=wrap;html=1;align=center;" vertex="1" parent="1">
          <mxGeometry x="390" y="590" width="120" height="60" as="geometry" />
        </mxCell>
        <mxCell id="0jix5BdM98onpOWOXJaW-14" value="" style="endArrow=none;html=1;rounded=0;exitX=0.5;exitY=1;exitDx=0;exitDy=0;entryX=0;entryY=0;entryDx=0;entryDy=0;shape=link;" edge="1" parent="1" source="0jix5BdM98onpOWOXJaW-8" target="0jix5BdM98onpOWOXJaW-1">
          <mxGeometry relative="1" as="geometry">
            <mxPoint x="570" y="554.9999999999998" as="sourcePoint" />
            <mxPoint x="410" y="624.9999999999998" as="targetPoint" />
          </mxGeometry>
        </mxCell>
        <mxCell id="0jix5BdM98onpOWOXJaW-15" value="" style="endArrow=none;html=1;rounded=0;exitX=0.5;exitY=0;exitDx=0;exitDy=0;shape=link;" edge="1" parent="1" source="0jix5BdM98onpOWOXJaW-8">
          <mxGeometry relative="1" as="geometry">
            <mxPoint x="430" y="759.9999999999998" as="sourcePoint" />
            <mxPoint x="340" y="430" as="targetPoint" />
          </mxGeometry>
        </mxCell>
        <mxCell id="0jix5BdM98onpOWOXJaW-16" value="EVALUATED AS" style="shape=rhombus;perimeter=rhombusPerimeter;whiteSpace=wrap;html=1;align=center;" vertex="1" parent="1">
          <mxGeometry x="700" y="490" width="120" height="60" as="geometry" />
        </mxCell>
        <mxCell id="0jix5BdM98onpOWOXJaW-18" value="" style="endArrow=none;html=1;rounded=0;exitX=0;exitY=1;exitDx=0;exitDy=0;entryX=0.5;entryY=0;entryDx=0;entryDy=0;shape=link;" edge="1" parent="1" source="0jix5BdM98onpOWOXJaW-3" target="0jix5BdM98onpOWOXJaW-16">
          <mxGeometry relative="1" as="geometry">
            <mxPoint x="480" y="570" as="sourcePoint" />
            <mxPoint x="580" y="619.9999999999998" as="targetPoint" />
          </mxGeometry>
        </mxCell>
        <mxCell id="0jix5BdM98onpOWOXJaW-20" value="TAKE" style="shape=rhombus;perimeter=rhombusPerimeter;whiteSpace=wrap;html=1;align=center;" vertex="1" parent="1">
          <mxGeometry x="700" y="690" width="120" height="60" as="geometry" />
        </mxCell>
        <mxCell id="0jix5BdM98onpOWOXJaW-21" value="" style="endArrow=none;html=1;rounded=0;exitX=1;exitY=1;exitDx=0;exitDy=0;entryX=0.5;entryY=0;entryDx=0;entryDy=0;shape=link;" edge="1" parent="1" source="0jix5BdM98onpOWOXJaW-1" target="0jix5BdM98onpOWOXJaW-20">
          <mxGeometry relative="1" as="geometry">
            <mxPoint x="790" y="560" as="sourcePoint" />
            <mxPoint x="670" y="619.9999999999998" as="targetPoint" />
          </mxGeometry>
        </mxCell>
        <mxCell id="0jix5BdM98onpOWOXJaW-22" value="" style="endArrow=none;html=1;rounded=0;exitX=0.5;exitY=1;exitDx=0;exitDy=0;entryX=0;entryY=0;entryDx=0;entryDy=0;" edge="1" parent="1" source="0jix5BdM98onpOWOXJaW-20" target="0jix5BdM98onpOWOXJaW-5">
          <mxGeometry relative="1" as="geometry">
            <mxPoint x="800" y="570" as="sourcePoint" />
            <mxPoint x="680" y="629.9999999999998" as="targetPoint" />
          </mxGeometry>
        </mxCell>
        <mxCell id="0jix5BdM98onpOWOXJaW-28" value="CONTAIN" style="shape=rhombus;perimeter=rhombusPerimeter;whiteSpace=wrap;html=1;align=center;" vertex="1" parent="1">
          <mxGeometry x="550" y="490" width="120" height="60" as="geometry" />
        </mxCell>
        <mxCell id="0jix5BdM98onpOWOXJaW-29" value="" style="endArrow=none;html=1;rounded=0;exitX=0.5;exitY=1;exitDx=0;exitDy=0;entryX=0.5;entryY=0;entryDx=0;entryDy=0;" edge="1" parent="1" source="0jix5BdM98onpOWOXJaW-28" target="0jix5BdM98onpOWOXJaW-1">
          <mxGeometry relative="1" as="geometry">
            <mxPoint x="470" y="560" as="sourcePoint" />
            <mxPoint x="570" y="610" as="targetPoint" />
          </mxGeometry>
        </mxCell>
        <mxCell id="0jix5BdM98onpOWOXJaW-30" value="" style="endArrow=none;html=1;rounded=0;exitX=0.5;exitY=1;exitDx=0;exitDy=0;entryX=0.5;entryY=0;entryDx=0;entryDy=0;shape=link;" edge="1" parent="1" source="0jix5BdM98onpOWOXJaW-7" target="0jix5BdM98onpOWOXJaW-28">
          <mxGeometry relative="1" as="geometry">
            <mxPoint x="480" y="570" as="sourcePoint" />
            <mxPoint x="580" y="620" as="targetPoint" />
          </mxGeometry>
        </mxCell>
        <mxCell id="0jix5BdM98onpOWOXJaW-32" value="" style="endArrow=none;html=1;rounded=0;exitX=0;exitY=1;exitDx=0;exitDy=0;shape=link;" edge="1" parent="1" source="0jix5BdM98onpOWOXJaW-7">
          <mxGeometry relative="1" as="geometry">
            <mxPoint x="470" y="500" as="sourcePoint" />
            <mxPoint x="460" y="490" as="targetPoint" />
          </mxGeometry>
        </mxCell>
        <mxCell id="0jix5BdM98onpOWOXJaW-33" value="" style="endArrow=none;html=1;rounded=0;exitX=0.5;exitY=0;exitDx=0;exitDy=0;entryX=1;entryY=1;entryDx=0;entryDy=0;" edge="1" parent="1" source="0jix5BdM98onpOWOXJaW-16" target="0jix5BdM98onpOWOXJaW-7">
          <mxGeometry relative="1" as="geometry">
            <mxPoint x="480" y="510" as="sourcePoint" />
            <mxPoint x="360" y="450" as="targetPoint" />
          </mxGeometry>
        </mxCell>
        <mxCell id="0jix5BdM98onpOWOXJaW-35" value="EVALUATE" style="shape=rhombus;perimeter=rhombusPerimeter;whiteSpace=wrap;html=1;align=center;" vertex="1" parent="1">
          <mxGeometry x="870" y="490" width="120" height="60" as="geometry" />
        </mxCell>
        <mxCell id="0jix5BdM98onpOWOXJaW-38" value="" style="endArrow=none;html=1;rounded=0;entryX=0.5;entryY=1;entryDx=0;entryDy=0;" edge="1" parent="1" target="0jix5BdM98onpOWOXJaW-35">
          <mxGeometry relative="1" as="geometry">
            <mxPoint x="930" y="600" as="sourcePoint" />
            <mxPoint x="370" y="460" as="targetPoint" />
          </mxGeometry>
        </mxCell>
        <mxCell id="0jix5BdM98onpOWOXJaW-39" value="" style="endArrow=none;html=1;rounded=0;exitX=0.5;exitY=1;exitDx=0;exitDy=0;entryX=0.5;entryY=0;entryDx=0;entryDy=0;" edge="1" parent="1" source="0jix5BdM98onpOWOXJaW-3" target="0jix5BdM98onpOWOXJaW-35">
          <mxGeometry relative="1" as="geometry">
            <mxPoint x="500" y="530" as="sourcePoint" />
            <mxPoint x="380" y="470" as="targetPoint" />
          </mxGeometry>
        </mxCell>
        <mxCell id="0jix5BdM98onpOWOXJaW-40" value="(1,m)" style="text;html=1;align=center;verticalAlign=middle;resizable=0;points=[];autosize=1;" vertex="1" parent="1">
          <mxGeometry x="700" y="640" width="40" height="20" as="geometry" />
        </mxCell>
        <mxCell id="0jix5BdM98onpOWOXJaW-41" value="(0,n)" style="text;html=1;align=center;verticalAlign=middle;resizable=0;points=[];autosize=1;" vertex="1" parent="1">
          <mxGeometry x="807" y="750" width="40" height="20" as="geometry" />
        </mxCell>
        <mxCell id="0jix5BdM98onpOWOXJaW-42" value="Taking Movie" style="text;html=1;align=center;verticalAlign=middle;resizable=0;points=[];autosize=1;" vertex="1" parent="1">
          <mxGeometry x="730" y="640" width="90" height="20" as="geometry" />
        </mxCell>
        <mxCell id="0jix5BdM98onpOWOXJaW-43" value="Taken Genre" style="text;html=1;align=center;verticalAlign=middle;resizable=0;points=[];autosize=1;" vertex="1" parent="1">
          <mxGeometry x="840" y="750" width="80" height="20" as="geometry" />
        </mxCell>
        <mxCell id="0jix5BdM98onpOWOXJaW-44" value="Rating" style="shape=ext;margin=3;double=1;whiteSpace=wrap;html=1;align=center;" vertex="1" parent="1">
          <mxGeometry x="880" y="400" width="100" height="40" as="geometry" />
        </mxCell>
        <mxCell id="0jix5BdM98onpOWOXJaW-45" value="(0,m)" style="text;html=1;align=center;verticalAlign=middle;resizable=0;points=[];autosize=1;" vertex="1" parent="1">
          <mxGeometry x="710" y="570" width="40" height="20" as="geometry" />
        </mxCell>
        <mxCell id="0jix5BdM98onpOWOXJaW-46" value="(0,n)" style="text;html=1;align=center;verticalAlign=middle;resizable=0;points=[];autosize=1;" vertex="1" parent="1">
          <mxGeometry x="797" y="410" width="40" height="20" as="geometry" />
        </mxCell>
        <mxCell id="0jix5BdM98onpOWOXJaW-48" value="Evaluated Movie" style="text;html=1;align=center;verticalAlign=middle;resizable=0;points=[];autosize=1;" vertex="1" parent="1">
          <mxGeometry x="680" y="585" width="100" height="20" as="geometry" />
        </mxCell>
        <mxCell id="0jix5BdM98onpOWOXJaW-50" value="Rating" style="text;html=1;align=center;verticalAlign=middle;resizable=0;points=[];autosize=1;" vertex="1" parent="1">
          <mxGeometry x="797" y="430" width="50" height="20" as="geometry" />
        </mxCell>
        <mxCell id="0jix5BdM98onpOWOXJaW-51" value="EVALUATED AS" style="shape=rhombus;double=1;perimeter=rhombusPerimeter;whiteSpace=wrap;html=1;align=center;" vertex="1" parent="1">
          <mxGeometry x="700" y="490" width="120" height="60" as="geometry" />
        </mxCell>
        <mxCell id="0jix5BdM98onpOWOXJaW-52" value="CHARACTER" style="whiteSpace=wrap;html=1;align=center;" vertex="1" parent="1">
          <mxGeometry x="240" y="600" width="100" height="40" as="geometry" />
        </mxCell>
        <mxCell id="0jix5BdM98onpOWOXJaW-53" value="CHARACTER" style="shape=ext;margin=3;double=1;whiteSpace=wrap;html=1;align=center;" vertex="1" parent="1">
          <mxGeometry x="240" y="600" width="100" height="40" as="geometry" />
        </mxCell>
        <mxCell id="0jix5BdM98onpOWOXJaW-54" value="PLAY" style="shape=rhombus;perimeter=rhombusPerimeter;whiteSpace=wrap;html=1;align=center;" vertex="1" parent="1">
          <mxGeometry x="230" y="690" width="120" height="60" as="geometry" />
        </mxCell>
        <mxCell id="0jix5BdM98onpOWOXJaW-56" value="" style="endArrow=none;html=1;rounded=0;exitX=1;exitY=0.5;exitDx=0;exitDy=0;entryX=0;entryY=0.5;entryDx=0;entryDy=0;shape=link;" edge="1" parent="1" source="0jix5BdM98onpOWOXJaW-53" target="0jix5BdM98onpOWOXJaW-9">
          <mxGeometry relative="1" as="geometry">
            <mxPoint x="480" y="570" as="sourcePoint" />
            <mxPoint x="580" y="620" as="targetPoint" />
          </mxGeometry>
        </mxCell>
        <mxCell id="0jix5BdM98onpOWOXJaW-57" value="CONTAIN" style="shape=rhombus;double=1;perimeter=rhombusPerimeter;whiteSpace=wrap;html=1;align=center;" vertex="1" parent="1">
          <mxGeometry x="550" y="490" width="120" height="60" as="geometry" />
        </mxCell>
        <mxCell id="0jix5BdM98onpOWOXJaW-58" value="(0,m)" style="text;html=1;align=center;verticalAlign=middle;resizable=0;points=[];autosize=1;" vertex="1" parent="1">
          <mxGeometry x="510" y="600" width="40" height="20" as="geometry" />
        </mxCell>
        <mxCell id="0jix5BdM98onpOWOXJaW-59" value="Movie" style="text;html=1;align=center;verticalAlign=middle;resizable=0;points=[];autosize=1;" vertex="1" parent="1">
          <mxGeometry x="505" y="620" width="50" height="20" as="geometry" />
        </mxCell>
        <mxCell id="0jix5BdM98onpOWOXJaW-60" value="(1,n)" style="text;html=1;align=center;verticalAlign=middle;resizable=0;points=[];autosize=1;" vertex="1" parent="1">
          <mxGeometry x="340" y="600" width="40" height="20" as="geometry" />
        </mxCell>
        <mxCell id="0jix5BdM98onpOWOXJaW-61" value="Appearing character" style="text;html=1;align=center;verticalAlign=middle;resizable=0;points=[];autosize=1;" vertex="1" parent="1">
          <mxGeometry x="315" y="580" width="120" height="20" as="geometry" />
        </mxCell>
        <mxCell id="0jix5BdM98onpOWOXJaW-62" value="PLAY" style="shape=rhombus;double=1;perimeter=rhombusPerimeter;whiteSpace=wrap;html=1;align=center;" vertex="1" parent="1">
          <mxGeometry x="230" y="690" width="120" height="60" as="geometry" />
        </mxCell>
        <mxCell id="0jix5BdM98onpOWOXJaW-63" value="ACTOR" style="shape=ext;margin=3;double=1;whiteSpace=wrap;html=1;align=center;" vertex="1" parent="1">
          <mxGeometry x="240" y="800" width="100" height="40" as="geometry" />
        </mxCell>
        <mxCell id="0jix5BdM98onpOWOXJaW-77" value="" style="endArrow=none;html=1;rounded=0;exitX=0.5;exitY=1;exitDx=0;exitDy=0;entryX=0.5;entryY=0;entryDx=0;entryDy=0;shape=link;" edge="1" parent="1" source="0jix5BdM98onpOWOXJaW-53" target="0jix5BdM98onpOWOXJaW-62">
          <mxGeometry relative="1" as="geometry">
            <mxPoint x="620" y="560" as="sourcePoint" />
            <mxPoint x="620" y="610" as="targetPoint" />
          </mxGeometry>
        </mxCell>
        <mxCell id="0jix5BdM98onpOWOXJaW-78" value="(0,1)" style="text;html=1;align=center;verticalAlign=middle;resizable=0;points=[];autosize=1;" vertex="1" parent="1">
          <mxGeometry x="250" y="760" width="40" height="20" as="geometry" />
        </mxCell>
        <mxCell id="0jix5BdM98onpOWOXJaW-79" value="Playing actor" style="text;html=1;align=center;verticalAlign=middle;resizable=0;points=[];autosize=1;" vertex="1" parent="1">
          <mxGeometry x="290" y="760" width="80" height="20" as="geometry" />
        </mxCell>
        <mxCell id="0jix5BdM98onpOWOXJaW-80" value="(1,n)" style="text;html=1;align=center;verticalAlign=middle;resizable=0;points=[];autosize=1;" vertex="1" parent="1">
          <mxGeometry x="250" y="660" width="40" height="20" as="geometry" />
        </mxCell>
        <mxCell id="0jix5BdM98onpOWOXJaW-82" value="Played character" style="text;html=1;align=center;verticalAlign=middle;resizable=0;points=[];autosize=1;" vertex="1" parent="1">
          <mxGeometry x="290" y="660" width="110" height="20" as="geometry" />
        </mxCell>
        <mxCell id="0jix5BdM98onpOWOXJaW-83" value="Season" style="text;html=1;align=center;verticalAlign=middle;resizable=0;points=[];autosize=1;" vertex="1" parent="1">
          <mxGeometry x="580" y="660" width="60" height="20" as="geometry" />
        </mxCell>
        <mxCell id="0jix5BdM98onpOWOXJaW-84" value="EPISODE" style="shape=ext;margin=3;double=1;whiteSpace=wrap;html=1;align=center;" vertex="1" parent="1">
          <mxGeometry x="560" y="400" width="100" height="40" as="geometry" />
        </mxCell>
        <mxCell id="0jix5BdM98onpOWOXJaW-85" value="Contained episode" style="text;html=1;align=center;verticalAlign=middle;resizable=0;points=[];autosize=1;" vertex="1" parent="1">
          <mxGeometry x="605" y="470" width="120" height="20" as="geometry" />
        </mxCell>
        <mxCell id="0jix5BdM98onpOWOXJaW-86" value="(1,n)" style="text;html=1;align=center;verticalAlign=middle;resizable=0;points=[];autosize=1;" vertex="1" parent="1">
          <mxGeometry x="570" y="470" width="40" height="20" as="geometry" />
        </mxCell>
        <mxCell id="0jix5BdM98onpOWOXJaW-87" value="Episode_id" style="text;html=1;align=center;verticalAlign=middle;resizable=0;points=[];autosize=1;" vertex="1" parent="1">
          <mxGeometry x="635" y="290" width="70" height="20" as="geometry" />
        </mxCell>
        <mxCell id="0jix5BdM98onpOWOXJaW-88" value="Episode_title" style="text;html=1;align=center;verticalAlign=middle;resizable=0;points=[];autosize=1;" vertex="1" parent="1">
          <mxGeometry x="710" y="290" width="80" height="20" as="geometry" />
        </mxCell>
        <mxCell id="0jix5BdM98onpOWOXJaW-89" value="0" style="text;html=1;align=center;verticalAlign=middle;resizable=0;points=[];autosize=1;" vertex="1" parent="1">
          <mxGeometry x="660" y="310" width="20" height="20" as="geometry" />
        </mxCell>
        <mxCell id="0jix5BdM98onpOWOXJaW-90" value="&quot;Pilot episode&quot;" style="text;html=1;align=center;verticalAlign=middle;resizable=0;points=[];autosize=1;" vertex="1" parent="1">
          <mxGeometry x="705" y="310" width="90" height="20" as="geometry" />
        </mxCell>
        <mxCell id="0jix5BdM98onpOWOXJaW-91" value="1" style="text;html=1;align=center;verticalAlign=middle;resizable=0;points=[];autosize=1;" vertex="1" parent="1">
          <mxGeometry x="660" y="330" width="20" height="20" as="geometry" />
        </mxCell>
        <mxCell id="0jix5BdM98onpOWOXJaW-92" value="Containing series" style="text;html=1;align=center;verticalAlign=middle;resizable=0;points=[];autosize=1;" vertex="1" parent="1">
          <mxGeometry x="610" y="550" width="110" height="20" as="geometry" />
        </mxCell>
        <mxCell id="0jix5BdM98onpOWOXJaW-93" value="(0,1)" style="text;html=1;align=center;verticalAlign=middle;resizable=0;points=[];autosize=1;" vertex="1" parent="1">
          <mxGeometry x="570" y="550" width="40" height="20" as="geometry" />
        </mxCell>
        <mxCell id="0jix5BdM98onpOWOXJaW-96" value="ACTOR" style="whiteSpace=wrap;html=1;align=center;" vertex="1" parent="1">
          <mxGeometry x="240" y="800" width="100" height="40" as="geometry" />
        </mxCell>
        <mxCell id="0jix5BdM98onpOWOXJaW-97" value="" style="endArrow=none;html=1;rounded=0;exitX=0.5;exitY=1;exitDx=0;exitDy=0;entryX=0.5;entryY=0;entryDx=0;entryDy=0;" edge="1" parent="1" source="0jix5BdM98onpOWOXJaW-62" target="0jix5BdM98onpOWOXJaW-96">
          <mxGeometry relative="1" as="geometry">
            <mxPoint x="470" y="560" as="sourcePoint" />
            <mxPoint x="570" y="610" as="targetPoint" />
          </mxGeometry>
        </mxCell>
        <mxCell id="0jix5BdM98onpOWOXJaW-99" value="MOVIE" style="text;html=1;align=center;verticalAlign=middle;resizable=0;points=[];autosize=1;" vertex="1" parent="1">
          <mxGeometry x="565" y="700" width="50" height="20" as="geometry" />
        </mxCell>
        <mxCell id="0jix5BdM98onpOWOXJaW-100" value="SERIES" style="text;html=1;align=center;verticalAlign=middle;resizable=0;points=[];autosize=1;" vertex="1" parent="1">
          <mxGeometry x="620" y="700" width="60" height="20" as="geometry" />
        </mxCell>
        <mxCell id="0jix5BdM98onpOWOXJaW-102" value="APPEAR IN" style="shape=rhombus;double=1;perimeter=rhombusPerimeter;whiteSpace=wrap;html=1;align=center;" vertex="1" parent="1">
          <mxGeometry x="390" y="590" width="120" height="60" as="geometry" />
        </mxCell>
        <mxCell id="0jix5BdM98onpOWOXJaW-103" value="&quot;Birthday party&quot;" style="text;html=1;align=center;verticalAlign=middle;resizable=0;points=[];autosize=1;" vertex="1" parent="1">
          <mxGeometry x="700" y="330" width="100" height="20" as="geometry" />
        </mxCell>
        <mxCell id="0jix5BdM98onpOWOXJaW-106" value="VERSION" style="shape=ext;margin=3;double=1;whiteSpace=wrap;html=1;align=center;" vertex="1" parent="1">
          <mxGeometry x="240" y="400" width="100" height="40" as="geometry" />
        </mxCell>
        <mxCell id="0jix5BdM98onpOWOXJaW-107" value="PROVIDE" style="shape=rhombus;double=1;perimeter=rhombusPerimeter;whiteSpace=wrap;html=1;align=center;" vertex="1" parent="1">
          <mxGeometry x="400" y="490" width="120" height="60" as="geometry" />
        </mxCell>
        <mxCell id="0jix5BdM98onpOWOXJaW-108" value="Rating" style="text;html=1;align=center;verticalAlign=middle;resizable=0;points=[];autosize=1;" vertex="1" parent="1">
          <mxGeometry x="1165" y="270" width="50" height="20" as="geometry" />
        </mxCell>
        <mxCell id="0jix5BdM98onpOWOXJaW-109" value="1 CONTACT 6.9" style="text;html=1;align=center;verticalAlign=middle;resizable=0;points=[];autosize=1;" vertex="1" parent="1">
          <mxGeometry x="1200" y="310" width="100" height="20" as="geometry" />
        </mxCell>
        <mxCell id="0jix5BdM98onpOWOXJaW-110" value="2 CONTACT 9.7" style="text;html=1;align=center;verticalAlign=middle;resizable=0;points=[];autosize=1;" vertex="1" parent="1">
          <mxGeometry x="1200" y="330" width="100" height="20" as="geometry" />
        </mxCell>
        <mxCell id="0jix5BdM98onpOWOXJaW-112" value="CONTACT" style="text;html=1;align=center;verticalAlign=middle;resizable=0;points=[];autosize=1;" vertex="1" parent="1">
          <mxGeometry x="545" y="720" width="70" height="20" as="geometry" />
        </mxCell>
        <mxCell id="0jix5BdM98onpOWOXJaW-114" value="" style="endArrow=none;html=1;rounded=0;exitX=1;exitY=0.5;exitDx=0;exitDy=0;entryX=0;entryY=0.5;entryDx=0;entryDy=0;" edge="1" parent="1" source="0jix5BdM98onpOWOXJaW-102" target="0jix5BdM98onpOWOXJaW-1">
          <mxGeometry relative="1" as="geometry">
            <mxPoint x="620" y="560" as="sourcePoint" />
            <mxPoint x="620" y="610" as="targetPoint" />
          </mxGeometry>
        </mxCell>
        <mxCell id="0jix5BdM98onpOWOXJaW-115" value="1 츄바카" style="text;html=1;align=center;verticalAlign=middle;resizable=0;points=[];autosize=1;" vertex="1" parent="1">
          <mxGeometry x="30" y="540" width="60" height="20" as="geometry" />
        </mxCell>
        <mxCell id="0jix5BdM98onpOWOXJaW-116" value="2 스카이워커" style="text;html=1;align=center;verticalAlign=middle;resizable=0;points=[];autosize=1;" vertex="1" parent="1">
          <mxGeometry x="20" y="570" width="80" height="20" as="geometry" />
        </mxCell>
        <mxCell id="0jix5BdM98onpOWOXJaW-117" value="스타워즈 에피소드 4" style="text;html=1;align=center;verticalAlign=middle;resizable=0;points=[];autosize=1;" vertex="1" parent="1">
          <mxGeometry x="140" y="540" width="110" height="20" as="geometry" />
        </mxCell>
        <mxCell id="0jix5BdM98onpOWOXJaW-118" value="스타워즈 에피소드 1" style="text;html=1;align=center;verticalAlign=middle;resizable=0;points=[];autosize=1;" vertex="1" parent="1">
          <mxGeometry x="140" y="560" width="110" height="20" as="geometry" />
        </mxCell>
        <mxCell id="0jix5BdM98onpOWOXJaW-119" value="장고" style="text;html=1;align=center;verticalAlign=middle;resizable=0;points=[];autosize=1;" vertex="1" parent="1">
          <mxGeometry x="70" y="490" width="40" height="20" as="geometry" />
        </mxCell>
        <mxCell id="0jix5BdM98onpOWOXJaW-121" value="(1,n)" style="text;html=1;align=center;verticalAlign=middle;resizable=0;points=[];autosize=1;" vertex="1" parent="1">
          <mxGeometry x="420" y="550" width="40" height="20" as="geometry" />
        </mxCell>
        <mxCell id="0jix5BdM98onpOWOXJaW-122" value="Providing movie" style="text;html=1;align=center;verticalAlign=middle;resizable=0;points=[];autosize=1;" vertex="1" parent="1">
          <mxGeometry x="410" y="565" width="100" height="20" as="geometry" />
        </mxCell>
        <mxCell id="0jix5BdM98onpOWOXJaW-123" value="(1,1)" style="text;html=1;align=center;verticalAlign=middle;resizable=0;points=[];autosize=1;" vertex="1" parent="1">
          <mxGeometry x="340" y="450" width="40" height="20" as="geometry" />
        </mxCell>
        <mxCell id="0jix5BdM98onpOWOXJaW-124" value="Provided version" style="text;html=1;align=center;verticalAlign=middle;resizable=0;points=[];autosize=1;" vertex="1" parent="1">
          <mxGeometry x="310" y="470" width="100" height="20" as="geometry" />
        </mxCell>
        <mxCell id="0jix5BdM98onpOWOXJaW-125" value="(1,n)&lt;br&gt;" style="text;html=1;align=center;verticalAlign=middle;resizable=0;points=[];autosize=1;" vertex="1" parent="1">
          <mxGeometry x="490" y="440" width="40" height="20" as="geometry" />
        </mxCell>
        <mxCell id="0jix5BdM98onpOWOXJaW-126" value="Provoding episode" style="text;html=1;align=center;verticalAlign=middle;resizable=0;points=[];autosize=1;" vertex="1" parent="1">
          <mxGeometry x="450" y="420" width="110" height="20" as="geometry" />
        </mxCell>
        <mxCell id="0jix5BdM98onpOWOXJaW-129" value="" style="endArrow=none;html=1;rounded=0;entryX=0.5;entryY=1;entryDx=0;entryDy=0;" edge="1" parent="1" source="0jix5BdM98onpOWOXJaW-1" target="0jix5BdM98onpOWOXJaW-51">
          <mxGeometry relative="1" as="geometry">
            <mxPoint x="770" y="500" as="sourcePoint" />
            <mxPoint x="670" y="450" as="targetPoint" />
          </mxGeometry>
        </mxCell>
        <mxCell id="0jix5BdM98onpOWOXJaW-130" value="(0,m)" style="text;html=1;align=center;verticalAlign=middle;resizable=0;points=[];autosize=1;" vertex="1" parent="1">
          <mxGeometry x="690" y="405" width="40" height="20" as="geometry" />
        </mxCell>
        <mxCell id="0jix5BdM98onpOWOXJaW-131" value="Evaluated episode" style="text;html=1;align=center;verticalAlign=middle;resizable=0;points=[];autosize=1;" vertex="1" parent="1">
          <mxGeometry x="655" y="420" width="110" height="20" as="geometry" />
        </mxCell>
      </root>
    </mxGraphModel>
  </diagram>
</mxfile>
